# xmcd
#
# Track frame offsets: 
#        150
#        67214
#        119122
#        167374
#        242904
#        260370
#        274385
#
# Disc length: 4095 seconds
#
# Revision: 1
# Processed by: cddbd v1.5.1PL0 Copyright (c) Steve Scherf et al.
# Submitted via: ExactAudioCopy v0.95a5
#
DISCID=6c0ffd07
DTITLE=Various Artist - Ronny's Pop Show - NDW Megamix
DYEAR=2002
DGENRE=Pop
TTITLE0=1 Block A/...Karat,Purple Schulz,Spliff...
TTITLE1=2 Block B/...Fehlfarben,Grauzone,Nina Hagen...
TTITLE2=3 Block C/...UKW,Hubert Kah,Extrabreit...
TTITLE3=4 Block D/...Rheingold,Fr. Mencke,Steinwolke...
TTITLE4=99 Luftballons
TTITLE5=Leuchtturm/Album Version
TTITLE6=Irgendwie, Irgendwo, Irgendwann
EXTD=
EXTT0=Bros - Intro\nPurple Schulz - Verliebte Jungs\nCosa Rosa - Milli
EXTT0=onenmal\nKarat - Der blaue Planet\nMorgenrot - Ca va!\nSpliff - 
EXTT0=Deja vu\nRodgau Monotones - Die Hessen kommen
EXTT1=DJ Bros - Intro\nFehlfarben - Ein Jahr (Es geht voran]\nHerwig M
EXTT1=itteregger - Immer mehr\nGrauzone - Eisbär\nDie Conditors - Kalt
EXTT1=wie Eis\nNina Hagen Band - TV-Glotzer (White Punks on dope)
EXTT2=DJ Bros - Intro\nUKW - Ich will\nSpider Murphy Gang - Skandal im
EXTT2=Sperrbezirk\nHubert Kah - Rosemarie\nUnited Balls - Pogo in Tog
EXTT2=o\nExtrabreit - Hurra, Hurra die Schule brennt
EXTT3=DJ Boros - Intro\nRheingold - Dreiklangdimensionen 2002\nAndreas
EXTT3=Dorau - Fred vom Jupiter\nFräulein Menke - Hohe Berge\nThe Ace 
EXTT3=Cats - Linda\nSteinwolke - Katherine Katherine\nUKW - Sommerspro
EXTT3=ssen\nDJ Boros - Outro
EXTT4=Nena
EXTT5=Nena
EXTT6=Nena
PLAYORDER=
